<?xml version="1.0" encoding="UTF-8"?>
<svg width="60px" height="34px" viewBox="0 0 60 34" version="1.1" xmlns="http://www.w3.org/2000/svg" xmlns:xlink="http://www.w3.org/1999/xlink">
    <!-- Generator: Sketch 53.2 (72643) - https://sketchapp.com -->
    <title>Logo</title>
    <desc>Created with Sketch.</desc>
    <g id="Symbols" stroke="none" stroke-width="1" fill="none" fill-rule="evenodd">
        <g id="FAQ/Title+Search" transform="translate(-177.000000, -15.000000)" fill="#FFFFFF">
            <g id="Logo/S.Hail_App_icon-white" transform="translate(177.000000, 15.000000)">
                <path d="M28.6109264,30.7813384 C22.6016569,30.7813384 16.9042203,28.429126 12.5682587,24.1591266 L10.6072666,26.2583864 C15.472999,31.0520069 21.8669973,33.6909091 28.6109264,33.6909091 C35.3515557,33.6909091 41.7421042,31.0543177 46.6066366,26.266397 L44.6469944,24.1660589 C40.3122328,28.4317449 34.6170461,30.7813384 28.6109264,30.7813384 M53.2373219,10.2521274 C51.4615696,10.2521274 50.0160991,8.7679952 50.0160991,6.94356328 C50.0160991,5.12175023 51.4615696,3.63992885 53.2373219,3.63992885 C55.0126243,3.63992885 56.4556949,5.12175023 56.4556949,6.94356328 C56.4556949,8.7679952 55.0126243,10.2521274 53.2373219,10.2521274 M53.2373219,0 C49.9898506,0 47.2702001,2.36037709 46.6201359,5.49732779 L7.91626461,5.49732779 C7.34209618,3.89534624 5.84262866,2.75228411 4.08322542,2.75228411 C1.82674953,2.75228411 0,4.63048 0,6.94356328 C0,9.26265457 1.82674953,11.139618 4.08322542,11.139618 C5.84232867,11.139618 7.34104624,9.99778833 7.91596462,8.39488246 L46.6213358,8.39488246 C47.27275,11.5321413 49.9916505,13.8920562 53.2373219,13.8920562 C56.9664168,13.8920562 60,10.77467 60,6.94356328 C60,3.11461324 56.9664168,0 53.2373219,0" id="S.Hail_App_icon-white"></path>
            </g>
        </g>
    </g>
</svg>